<?xml version="1.0" encoding="utf-8"?>
<!-- Generator: Adobe Illustrator 27.5.0, SVG Export Plug-In . SVG Version: 6.00 Build 0)  -->
<svg version="1.1" id="Capa_1" xmlns="http://www.w3.org/2000/svg" xmlns:xlink="http://www.w3.org/1999/xlink" x="0px" y="0px"
	 viewBox="0 0 425.197 425.197" style="enable-background:new 0 0 425.197 425.197;" xml:space="preserve">
<rect y="0" style="fill:#FFFFFF;" width="425.197" height="425.197"/>
<g>
	<g>
		<defs>
			
				<ellipse id="SVGID_1_" transform="matrix(0.039 -0.9992 0.9992 0.039 14.993 394.5162)" cx="212.598" cy="189.464" rx="158.406" ry="158.411"/>
		</defs>
		<use xlink:href="#SVGID_1_"  style="overflow:visible;fill:#61B9D9;"/>
		<clipPath id="SVGID_00000054230024025917318210000010987723016238970517_">
			<use xlink:href="#SVGID_1_"  style="overflow:visible;"/>
		</clipPath>
		<g style="clip-path:url(#SVGID_00000054230024025917318210000010987723016238970517_);">
			<g>
				<rect x="151.063" y="226.497" style="fill:#884713;" width="111.229" height="86.527"/>
				<rect x="194.429" y="274.09" style="fill:#FAC9AA;" width="27.685" height="23.426"/>
				<path style="fill:#DADADA;" d="M216.274,281.886c2.09,0,4.029,0.232,5.84,0.635v-8.432h-27.686v22.832
					C197.427,288.545,204.698,281.886,216.274,281.886z"/>
				<path style="fill:#FAC9AA;" d="M220.138,293.968h-11.863h-11.863c0,0-47.436-2.545-56.564,46.675h68.427h68.422
					C267.575,291.423,220.138,293.968,220.138,293.968z"/>
				<path style="fill:#FAC9AA;" d="M265.19,207.004c0,40.285-23.563,72.943-56.916,72.943c-33.357,0-56.918-32.658-56.918-72.943
					c0-40.287,23.561-72.945,56.918-72.945C241.628,134.059,265.19,166.718,265.19,207.004z"/>
				<g>
					<path style="fill:#FAC9AA;" d="M257.968,224.37c-1.197,6.347,1.07,12.103,5.064,12.852c3.993,0.751,8.193-3.783,9.387-10.133
						c1.193-6.347-1.076-12.101-5.069-12.85C263.358,213.488,259.157,218.025,257.968,224.37z"/>
					<path style="fill:#DADADA;" d="M265.159,220.421c0,0,0.262,0.129,0.734,0.297c0.221,0.086,0.559,0.142,0.759,0.376
						c0.219,0.222,0.475,0.313,0.644,0.635c0.217,0.244,0.367,0.544,0.472,0.911c0.179,0.296,0.118,0.779,0.233,1.153
						c-0.014,0.87-0.002,1.823-0.269,2.782c-0.162,0.969-0.503,1.909-0.856,2.749c-0.362,0.855-0.809,1.532-1.267,2.05
						c-0.242,0.184-0.478,0.426-0.728,0.531c-0.243,0.039-0.521,0.226-0.73,0.145c-0.431-0.056-0.757-0.081-0.757-0.081
						s0.176,0.2,0.623,0.539c0.213,0.206,0.566,0.192,0.98,0.299c0.402,0.055,0.888-0.068,1.361-0.245
						c0.907-0.423,1.777-1.212,2.392-2.184c0.66-0.96,1.111-2.107,1.374-3.304c0.12-0.601,0.191-1.214,0.189-1.835
						c0.071-0.604-0.124-1.238-0.196-1.819c-0.22-0.595-0.34-1.17-0.746-1.645c-0.18-0.237-0.34-0.475-0.522-0.674
						c-0.235-0.16-0.458-0.314-0.675-0.46c-0.381-0.334-0.938-0.351-1.315-0.429c-0.401-0.101-0.672,0.005-0.925,0.035
						C265.44,220.336,265.159,220.421,265.159,220.421z"/>
				</g>
				<g>
					<path style="fill:#FAC9AA;" d="M158.579,224.37c1.195,6.347-1.07,12.103-5.066,12.852c-3.992,0.751-8.194-3.783-9.386-10.133
						c-1.194-6.347,1.076-12.101,5.066-12.85C153.186,213.488,157.391,218.025,158.579,224.37z"/>
					<path style="fill:#DADADA;" d="M151.389,220.421c0,0-0.263,0.129-0.733,0.297c-0.223,0.086-0.559,0.142-0.764,0.376
						c-0.215,0.222-0.471,0.313-0.643,0.635c-0.215,0.244-0.369,0.544-0.474,0.911c-0.177,0.296-0.116,0.779-0.232,1.153
						c0.014,0.87,0,1.823,0.27,2.782c0.165,0.969,0.504,1.909,0.857,2.749c0.361,0.855,0.811,1.532,1.265,2.05
						c0.246,0.184,0.483,0.426,0.73,0.531c0.244,0.039,0.521,0.226,0.73,0.145c0.432-0.056,0.759-0.081,0.759-0.081
						s-0.175,0.2-0.626,0.539c-0.211,0.206-0.565,0.192-0.979,0.299c-0.406,0.055-0.887-0.068-1.363-0.245
						c-0.904-0.423-1.774-1.212-2.393-2.184c-0.658-0.96-1.109-2.107-1.373-3.304c-0.123-0.601-0.191-1.214-0.191-1.835
						c-0.069-0.604,0.128-1.238,0.198-1.819c0.218-0.595,0.342-1.17,0.746-1.645c0.178-0.237,0.337-0.475,0.52-0.674
						c0.235-0.16,0.458-0.314,0.673-0.46c0.383-0.334,0.941-0.351,1.316-0.429c0.404-0.101,0.673,0.005,0.925,0.035
						C151.102,220.336,151.389,220.421,151.389,220.421z"/>
				</g>
				<path style="fill:none;stroke:#8E4A15;stroke-width:2.8366;stroke-linecap:round;stroke-miterlimit:10;" d="M249.022,198.374
					c0,0-2.289-14.851-21.831-3.726"/>
				<path style="fill:none;stroke:#8E4A15;stroke-width:2.8366;stroke-linecap:round;stroke-miterlimit:10;" d="M169.23,198.374
					c0,0,2.291-14.851,21.832-3.726"/>
				<g>
					<g>
						<path style="fill:#D3AC91;" d="M199.466,240.654c1.009,0.021,2.02,0.092,3.01,0.098c0.988,0.012,1.98,0.032,2.955-0.032
							c0.976-0.052,1.941-0.114,2.875-0.28c0.473-0.055,0.92-0.194,1.375-0.284c0.438-0.134,0.889-0.233,1.293-0.412
							c0.422-0.15,0.807-0.346,1.182-0.544c0.366-0.21,0.699-0.45,1.002-0.708c0.293-0.267,0.564-0.546,0.779-0.861
							c0.221-0.311,0.4-0.646,0.543-1.003c0.301-0.705,0.398-1.517,0.414-2.343c0-0.416-0.035-0.839-0.096-1.259
							c-0.061-0.4-0.16-0.882-0.252-1.175l-0.046-0.15l-0.023-0.17c-0.2-1.554-0.299-3.119-0.232-4.702
							c0.018-0.79,0.119-1.588,0.227-2.388c0.137-0.803,0.275-1.605,0.57-2.425c0.464,0.738,0.771,1.492,1.076,2.247
							c0.276,0.758,0.545,1.517,0.732,2.285c0.404,1.532,0.643,3.082,0.779,4.642l-0.068-0.319c0.195,0.663,0.279,1.165,0.35,1.754
							c0.063,0.57,0.09,1.145,0.068,1.727c-0.048,1.161-0.283,2.361-0.823,3.473c-0.259,0.557-0.602,1.082-1.001,1.552
							c-0.393,0.477-0.854,0.883-1.336,1.246c-0.492,0.345-1.01,0.631-1.538,0.865c-0.53,0.218-1.065,0.417-1.606,0.534
							c-0.539,0.153-1.078,0.207-1.613,0.294c-0.535,0.03-1.07,0.095-1.596,0.076c-0.527,0.004-1.051-0.005-1.567-0.052
							c-0.519-0.023-1.032-0.084-1.54-0.169c-0.51-0.066-1.013-0.162-1.512-0.266c-0.501-0.09-0.998-0.204-1.489-0.347
							c-0.49-0.138-0.985-0.249-1.46-0.416L199.466,240.654z"/>
					</g>
				</g>
				<g>
					<path style="fill:#FFFFFF;" d="M194.588,251.294c2.833,5.954,7.895,9.938,13.686,9.938s10.849-3.983,13.682-9.938H194.588z"/>
					<g>
						<path style="fill:#DD9A8D;" d="M194.588,251.294c0.388,0.637,0.796,1.267,1.229,1.861c0.432,0.597,0.887,1.178,1.377,1.721
							c0.961,1.103,2.049,2.075,3.219,2.898c1.168,0.828,2.449,1.461,3.774,1.895c0.663,0.217,1.343,0.368,2.024,0.475
							c0.343,0.045,0.688,0.066,1.029,0.102l1.031,0.009l1.066-0.075l0.972-0.158c0.669-0.146,1.325-0.333,1.962-0.584
							c1.269-0.508,2.461-1.211,3.547-2.065c1.082-0.857,2.051-1.871,2.895-2.986c0.425-0.556,0.825-1.132,1.197-1.729
							c0.37-0.598,0.701-1.221,1.02-1.852l1.025,1.622c-2.281-0.004-4.561-0.044-6.842-0.099c-2.281-0.035-4.561-0.121-6.842-0.2
							c-1.141-0.033-2.281-0.095-3.422-0.148c-1.141-0.056-2.28-0.104-3.421-0.18C199.149,251.668,196.868,251.51,194.588,251.294z
							 M194.588,251.294c2.28-0.216,4.561-0.374,6.842-0.507c1.141-0.076,2.28-0.125,3.421-0.18
							c1.141-0.053,2.281-0.116,3.422-0.149c2.28-0.079,4.561-0.165,6.842-0.2c2.28-0.055,4.561-0.095,6.842-0.099h0.008
							c0.623-0.001,1.129,0.503,1.131,1.127c0,0.176-0.043,0.348-0.113,0.496c-0.342,0.703-0.7,1.398-1.104,2.07
							c-0.408,0.669-0.836,1.33-1.323,1.95c-0.968,1.242-2.085,2.382-3.347,3.354c-1.258,0.975-2.675,1.772-4.199,2.292
							c-0.76,0.263-1.543,0.454-2.336,0.59c-0.406,0.061-0.827,0.097-1.238,0.142l-1.162,0.026l-1.197-0.093
							c-0.395-0.066-0.791-0.119-1.182-0.199c-0.777-0.176-1.54-0.404-2.272-0.701c-1.468-0.593-2.796-1.459-3.971-2.46
							c-1.177-1.006-2.173-2.188-3.025-3.44c-0.421-0.632-0.794-1.29-1.142-1.958C195.142,252.678,194.86,251.99,194.588,251.294z"
							/>
					</g>
				</g>
				<g>
					<path style="fill:#432918;" d="M184.379,208.373c0,3.749-2.624,6.789-5.857,6.789c-3.238,0-5.857-3.04-5.857-6.789
						c0-3.75,2.619-6.789,5.857-6.789C181.755,201.584,184.379,204.623,184.379,208.373z"/>
					<g>
						<path style="fill:#FFFFFF;" d="M176.739,205.645c0,1.506-1.222,2.728-2.729,2.728c-1.507,0-2.73-1.222-2.73-2.728
							c0-1.51,1.223-2.731,2.73-2.731C175.518,202.914,176.739,204.135,176.739,205.645z"/>
						<path style="fill:#FFFFFF;" d="M176.601,209.607c0,0.714-0.582,1.295-1.297,1.295c-0.717,0-1.294-0.581-1.294-1.295
							c0-0.715,0.577-1.293,1.294-1.293C176.018,208.314,176.601,208.892,176.601,209.607z"/>
					</g>
				</g>
				<g>
					<path style="fill:#432918;" d="M230.469,208.373c0,3.749,2.622,6.789,5.853,6.789c3.238,0,5.859-3.04,5.859-6.789
						c0-3.75-2.621-6.789-5.859-6.789C233.091,201.584,230.469,204.623,230.469,208.373z"/>
					<g>
						<path style="fill:#FFFFFF;" d="M238.107,205.645c0,1.506,1.221,2.728,2.727,2.728c1.51,0,2.73-1.222,2.73-2.728
							c0-1.51-1.22-2.731-2.73-2.731C239.328,202.914,238.107,204.135,238.107,205.645z"/>
						<path style="fill:#FFFFFF;" d="M238.245,209.607c0,0.714,0.579,1.295,1.295,1.295c0.718,0,1.295-0.581,1.295-1.295
							c0-0.715-0.577-1.293-1.295-1.293C238.824,208.314,238.245,208.892,238.245,209.607z"/>
					</g>
				</g>
				<path style="fill:#E74645;" d="M241.574,297.516c-2.081-0.844-1.517-0.547-3.482-1.108c0,0,3.813,34.311-28.98,35.33
					c-0.27,0-0.543,0.007-0.805,0.003c-0.265,0.004-0.539-0.003-0.805-0.003c-32.795-1.018-28.982-35.33-28.982-35.33
					c-1.965,0.561-1.399,0.264-3.48,1.108c0,0,10.354,25.415-17.466,43.128h48.122h5.222h48.12
					C231.219,322.93,241.574,297.516,241.574,297.516z"/>
				<path style="fill:#341C10;" d="M151.356,214.158"/>
				<path style="fill:#341C10;" d="M183.081,135.401"/>
				<path style="fill:#D96E26;" d="M157.574,183.523c0,0,8.501-34.106,35.341-28.035c0,0-4.357-25.366-16.095-21.429
					c0,0-17.921,1.342-29.556,25.432c-18.759,46.154-8.027,120.457-8.027,120.457s2.359,30.767,6.423,43
					c0,0,4.857-11.77,18.887-20.517C164.547,302.43,149.686,238.179,157.574,183.523z"/>
				<path style="fill:#D96E26;" d="M254.128,174.96l15.051-30.172c24.354,46.611,4.258,183.994,4.258,183.994
					s-3.671-14.666-21.891-26.624C251.546,302.156,263.896,247.294,254.128,174.96"/>
				<path style="fill:#341C10;" d="M254.128,174.96c0,0-9.51-31.253-25.901-27.433c0,0-0.821-17.637,10.917-13.699
					c0,0,18.806,3.761,26.107,25.961L254.128,174.96z"/>
				<path style="fill:#D96E26;" d="M269.179,144.787L256.7,187.46c0,0-77.032-25.319-78.18-53.828c0,0-1.664-16.58,24.758-21.097
					C203.278,112.535,242.181,104.321,269.179,144.787z"/>
			</g>
			<g>
				<g>
					<path style="fill:#CF962B;" d="M100.651,184.136c-0.032,0.521-0.484,0.916-1.004,0.882l0,0
						c-0.521-0.036-0.916-0.484-0.883-1.004l0.609-21.199c0.033-0.521,0.483-0.917,1.006-0.883l0,0
						c0.521,0.035,0.916,0.486,0.882,1.007L100.651,184.136z"/>
					<path style="fill:#CB7F2A;" d="M94.444,183.246c-0.168,0.494-0.705,0.76-1.199,0.589l0,0c-0.494-0.167-0.759-0.706-0.594-1.199
						l5.291-20.266c0.166-0.495,0.707-0.76,1.201-0.591l0,0c0.496,0.168,0.758,0.705,0.591,1.199L94.444,183.246z"/>
					<path style="fill:#F9B233;" d="M97.644,183.768c-0.088,0.515-0.576,0.859-1.094,0.768l0,0c-0.514-0.089-0.858-0.58-0.769-1.095
						l2.56-20.963c0.09-0.515,0.58-0.858,1.094-0.77l0,0c0.514,0.09,0.859,0.582,0.77,1.097L97.644,183.768z"/>
					<path style="fill:#CF962B;" d="M110.415,182.563c0.168,0.496-0.098,1.034-0.592,1.202l0,0
						c-0.496,0.166-1.031-0.099-1.201-0.594l-6.422-20.274c-0.168-0.495,0.096-1.032,0.592-1.2l0,0
						c0.494-0.168,1.035,0.098,1.201,0.592L110.415,182.563z"/>
					<path style="fill:#CB7F2A;" d="M104.337,184.113c0.035,0.521-0.359,0.971-0.881,1.004l0,0
						c-0.521,0.031-0.973-0.363-1.006-0.884l-1.743-21.202c-0.032-0.518,0.364-0.969,0.883-1.004l0,0
						c0.522-0.033,0.97,0.363,1.005,0.883L104.337,184.113z"/>
					<path style="fill:#F9B233;" d="M107.493,183.37c0.117,0.512-0.205,1.018-0.715,1.131l0,0c-0.512,0.113-1.018-0.208-1.131-0.718
						l-4.532-20.803c-0.114-0.511,0.209-1.016,0.719-1.131l0,0c0.509-0.111,1.014,0.21,1.13,0.719L107.493,183.37z"/>
				</g>
				<path style="fill:#0D3953;" d="M268.884,153.798V94.442H153.711v59.356C153.711,153.798,205.733,173.833,268.884,153.798z"/>
				<path style="opacity:0.5;fill:#FFFFFF;" d="M205.843,110.011c-3.178,6.063-4.872,13.907-1.461,20.261
					c4.334,8.067,14.119,11.19,22.704,11.896c9.571,0.784,19.908-0.627,28.495-5.108c2.139-1.116,4.169-2.47,5.945-4.035v-32.163
					h-48.701C210.041,103.561,207.62,106.616,205.843,110.011z"/>
				<path style="fill:#B2B2B2;" d="M239.961,152.678c-12.079,1.729-25.284,1.367-36.605-3.653
					c-10.86-4.817-18.635-14.345-17.745-26.732c0.762-10.608,5.995-20.186,13.392-27.852h-45.292v59.356
					c0,0,52.022,20.034,115.173,0v-12.447C260.748,147.831,250.073,151.231,239.961,152.678z"/>
				<polygon style="fill:#0B3149;" points="98.241,89.497 215.419,58.008 332.595,87.799 211.298,121.618 				"/>
				<polygon style="fill:#000510;" points="98.241,89.497 211.298,121.618 211.298,126.837 98.241,94.442 				"/>
				<polygon style="fill:#062437;" points="211.298,121.618 211.298,126.837 332.595,92.197 332.595,87.799 				"/>
				<polygon style="fill:#F9B233;" points="215.419,80.914 102.179,88.44 98.241,89.497 102.641,90.747 215.419,83.928 				"/>
				<g>
					<path style="fill:#011625;" d="M225.3,80.913c0,3.343-4.424,6.053-9.881,6.053c-5.458,0-9.883-2.71-9.883-6.053
						c0-3.34,4.425-6.052,9.883-6.052C220.876,74.861,225.3,77.572,225.3,80.913z"/>
					<path style="fill:#0D3953;" d="M225.3,79.767c0,2.709-4.424,4.906-9.881,4.906c-5.458,0-9.883-2.197-9.883-4.906
						s4.425-4.906,9.883-4.906C220.876,74.861,225.3,77.058,225.3,79.767z"/>
				</g>
				<polygon style="fill:#F9B233;" points="102.641,90.747 102.641,160.947 99.854,160.947 98.241,94.16 98.241,89.497 				"/>
				<g>
					<path style="fill:#F28D32;" d="M104.899,160.527c0,1.742-1.693,3.154-3.783,3.154c-2.09,0-3.783-1.412-3.783-3.154
						c0-1.741,1.693-3.153,3.783-3.153C103.206,157.374,104.899,158.787,104.899,160.527z"/>
					<path style="fill:#E9E9E9;" d="M102.193,161.227c-1.495,0-2.706-1.009-2.706-2.255c0-0.602,0.287-1.148,0.752-1.553
						c-1.664,0.332-2.906,1.571-2.906,3.061c0,1.742,1.693,3.154,3.783,3.154c2.09,0,3.783-1.413,3.783-3.154
						c0-0.283-0.057-0.554-0.143-0.814C104.405,160.569,103.397,161.227,102.193,161.227z"/>
					<path style="fill:#E9E9E9;" d="M103.446,158.998c-0.076,0.48-0.766,0.765-1.54,0.643c-0.774-0.125-1.341-0.613-1.263-1.09
						c0.077-0.477,0.769-0.764,1.541-0.641C102.956,158.033,103.522,158.521,103.446,158.998z"/>
				</g>
			</g>
		</g>
	</g>
</g>
<g>
	<g>
		<path style="fill:#088AB1;" d="M114.31,375.891c-17.256,2.315-34.451,5.242-51.552,8.784c2.327-7.68,4.765-15.353,7.315-23.016
			c-5.465-7.604-11.056-15.152-16.771-22.642c18.182-3.765,36.465-6.878,54.811-9.338
			C110.177,345.082,112.243,360.486,114.31,375.891z"/>
		<path style="fill:#014A5F;" d="M114.31,375.891c-10.332-2.359-20.793-4.499-31.375-6.41c-2.687-15.308-5.373-30.617-8.059-45.925
			c11.201,1.803,22.281,3.847,33.236,6.122C110.177,345.082,112.243,360.486,114.31,375.891z"/>
		<path style="fill:#088AB1;" d="M310.464,375.891c17.256,2.315,34.451,5.242,51.552,8.784c-3.357-8.052-6.863-16.084-10.517-24.093
			c6.501-7.271,13.158-14.461,19.973-21.565c-18.182-3.765-36.464-6.878-54.811-9.338
			C314.596,345.082,312.529,360.486,310.464,375.891z"/>
		<path style="fill:#014A5F;" d="M310.464,375.891c10.332-2.359,20.793-4.499,31.375-6.41c2.686-15.309,5.373-30.617,8.059-45.925
			c-11.201,1.803-22.281,3.847-33.236,6.122C314.596,345.082,312.529,360.486,310.464,375.891z"/>
		<path style="fill:#0099C5;" d="M341.928,369.496c-85.675-15.044-173.317-15.05-258.993-0.016
			c-2.687-15.308-5.373-30.617-8.059-45.925c91.009-15.97,184.108-15.964,275.116,0.017
			C347.304,338.88,344.616,354.188,341.928,369.496z"/>
		<g>
			<path style="fill:#FFFFFF;" d="M135.94,348.181c-2.176,1.925-4.719,3.044-7.621,3.368c-3.676,0.409-6.934-0.449-9.818-2.59
				c-2.887-2.139-4.574-4.962-5.029-8.494c-0.457-3.528,0.465-6.7,2.801-9.499c2.336-2.798,5.42-4.421,9.218-4.843
				c1.559-0.174,3.092-0.096,4.588,0.233c0.163,1.553,0.327,3.104,0.491,4.657c-1.474-0.613-3.01-0.831-4.607-0.653
				c-2.52,0.281-4.563,1.354-6.112,3.208c-1.55,1.855-2.169,3.967-1.879,6.329c0.285,2.342,1.404,4.228,3.332,5.665
				c1.925,1.44,4.105,2.019,6.544,1.748c1.209-0.134,2.34-0.492,3.392-1.076c-0.265-2.478-0.528-4.955-0.792-7.433
				c1.5-0.16,3.002-0.316,4.504-0.467C135.28,341.617,135.61,344.899,135.94,348.181z"/>
			<path style="fill:#FFFFFF;" d="M154.468,348.681c-1.48,0.113-2.961,0.23-4.441,0.352c-0.117-1.31-0.236-2.62-0.355-3.93
				c-0.098-1.184-0.6-2.148-1.51-2.892c-0.91-0.743-1.984-1.062-3.226-0.953c-0.941,0.083-1.884,0.168-2.825,0.254
				c0.25,2.714,0.498,5.429,0.748,8.143c-1.479,0.136-2.958,0.275-4.438,0.42c-0.814-8.35-1.631-16.7-2.446-25.05
				c2.501-0.244,5.001-0.476,7.504-0.696c2.54-0.224,4.755,0.423,6.638,1.93c1.882,1.508,2.9,3.45,3.084,5.816
				c0.192,2.535-0.654,4.723-2.517,6.572c2.138,1.53,3.294,3.569,3.484,6.103C154.268,346.061,154.368,347.371,154.468,348.681z
				 M140.947,328.839c0.258,2.809,0.516,5.619,0.773,8.428c0.946-0.087,1.893-0.172,2.841-0.255c1.246-0.11,2.262-0.602,3.039-1.48
				c0.781-0.876,1.137-1.91,1.061-3.1c-0.074-1.19-0.575-2.159-1.512-2.903c-0.934-0.744-2.039-1.062-3.297-0.951
				C142.884,328.663,141.915,328.75,140.947,328.839z"/>
			<path style="fill:#FFFFFF;" d="M169.319,337.686c-2.937,0.165-5.873,0.346-8.809,0.543c0.225,3.323,0.448,6.646,0.673,9.969
				c-1.481,0.1-2.964,0.204-4.444,0.313c-0.407-5.536-0.813-11.072-1.219-16.608c-0.175-2.367,0.554-4.439,2.203-6.211
				c1.646-1.771,3.748-2.741,6.291-2.898c2.516-0.155,4.715,0.554,6.58,2.12c1.86,1.566,2.85,3.529,2.965,5.877
				c0.276,5.544,0.554,11.087,0.831,16.631c-1.503,0.075-3.009,0.155-4.513,0.239C169.691,344.336,169.505,341.011,169.319,337.686z
				 M160.263,334.546c2.949-0.199,5.899-0.381,8.85-0.546c-0.055-0.996-0.111-1.991-0.166-2.987
				c-0.066-1.164-0.552-2.136-1.464-2.912c-0.913-0.777-1.989-1.128-3.225-1.051c-1.235,0.077-2.267,0.557-3.085,1.44
				c-0.822,0.883-1.189,1.908-1.111,3.071C160.128,332.557,160.196,333.552,160.263,334.546z"/>
			<path style="fill:#FFFFFF;" d="M184.837,347.004c-2.723,0.12-5.447,0.254-8.17,0.403c-0.397-8.412-0.791-16.824-1.188-25.237
				c2.792-0.131,5.584-0.247,8.377-0.349c3.723-0.135,6.943,0.998,9.625,3.38c2.683,2.384,4.048,5.322,4.137,8.796
				c0.111,3.495-1.105,6.492-3.607,9.009C191.509,345.526,188.461,346.852,184.837,347.004z M193.095,334.129
				c-0.087-2.315-0.985-4.26-2.749-5.827c-1.756-1.566-3.871-2.309-6.335-2.219c-1.252,0.045-2.506,0.094-3.758,0.145
				c0.229,5.553,0.457,11.106,0.686,16.659c1.236-0.051,2.473-0.099,3.71-0.143c2.407-0.108,4.435-0.989,6.081-2.651
				C192.382,338.43,193.171,336.445,193.095,334.129z"/>
			<path style="fill:#FFFFFF;" d="M212.067,340.953c0.866-0.817,1.298-1.808,1.301-2.975c0.008-5.568,0.014-11.137,0.021-16.705
				c1.532,0.002,3.066,0.008,4.599,0.02c-0.04,5.568-0.079,11.136-0.119,16.705c-0.017,2.354-0.904,4.352-2.64,6
				c-1.738,1.648-3.818,2.473-6.259,2.483c-2.442,0.011-4.528-0.795-6.28-2.427c-1.752-1.633-2.656-3.622-2.693-5.977
				c-0.09-5.567-0.18-11.135-0.27-16.703c1.545-0.025,3.09-0.045,4.635-0.061c0.057,5.568,0.113,11.136,0.17,16.704
				c0.013,1.167,0.449,2.154,1.309,2.963c0.857,0.809,1.898,1.21,3.11,1.204C210.168,342.18,211.211,341.77,212.067,340.953z"/>
			<path style="fill:#FFFFFF;" d="M233.515,336.772c-2.939-0.081-5.879-0.145-8.818-0.191c-0.053,3.33-0.105,6.66-0.16,9.99
				c-1.484-0.023-2.969-0.043-4.453-0.058c0.057-5.55,0.113-11.101,0.17-16.651c0.023-2.373,0.922-4.378,2.71-6.006
				c1.787-1.628,3.962-2.419,6.507-2.364c2.52,0.055,4.652,0.944,6.379,2.66c1.729,1.716,2.543,3.754,2.465,6.103
				c-0.186,5.548-0.37,11.096-0.556,16.643c-1.505-0.05-3.011-0.096-4.517-0.137C233.332,343.43,233.424,340.101,233.515,336.772z
				 M224.755,332.889c2.954,0.047,5.908,0.111,8.861,0.192c0.027-0.997,0.055-1.994,0.082-2.99c0.03-1.165-0.37-2.174-1.215-3.023
				c-0.842-0.851-1.886-1.289-3.125-1.316c-1.234-0.027-2.299,0.366-3.193,1.179c-0.889,0.811-1.342,1.802-1.362,2.968
				C224.787,330.896,224.77,331.892,224.755,332.889z"/>
			<path style="fill:#FFFFFF;" d="M248.963,347.353c-1.505-0.072-3.009-0.14-4.515-0.204c0.303-7.153,0.604-14.306,0.905-21.459
				c-2.292-0.097-4.585-0.183-6.88-0.26c0.041-1.229,0.082-2.459,0.123-3.688c6.153,0.206,12.304,0.483,18.451,0.833
				c-0.069,1.228-0.14,2.456-0.209,3.685c-2.281-0.13-4.563-0.25-6.844-0.36C249.651,333.05,249.308,340.202,248.963,347.353z"/>
			<path style="fill:#FFFFFF;" d="M255.856,322.507c1.531,0.085,3.063,0.174,4.594,0.268c-0.514,8.374-1.026,16.748-1.539,25.122
				c-1.482-0.091-2.966-0.177-4.447-0.259C254.928,339.261,255.392,330.884,255.856,322.507z"/>
			<path style="fill:#FFFFFF;" d="M274.411,349.421c-3.678-0.301-6.715-1.766-9.132-4.419c-2.417-2.651-3.53-5.745-3.304-9.299
				c0.232-3.55,1.732-6.488,4.559-8.788c2.825-2.3,6.161-3.303,9.965-2.992c3.806,0.312,6.929,1.843,9.332,4.571
				c2.404,2.728,3.412,5.871,3.055,9.411c-0.355,3.523-1.953,6.388-4.773,8.622C281.29,348.761,278.073,349.721,274.411,349.421z
				 M284.376,337.47c0.221-2.348-0.461-4.435-2.063-6.255c-1.602-1.82-3.662-2.837-6.163-3.042c-2.522-0.207-4.729,0.457-6.604,1.98
				c-1.879,1.525-2.889,3.48-3.055,5.853c-0.162,2.354,0.568,4.418,2.185,6.198c1.617,1.782,3.639,2.767,6.083,2.967
				c2.447,0.2,4.596-0.443,6.473-1.939C283.103,341.737,284.157,339.819,284.376,337.47z"/>
			<path style="fill:#FFFFFF;" d="M295.997,335.492c-0.556,5.136-1.112,10.271-1.669,15.407c-1.5-0.163-2.999-0.32-4.499-0.474
				c0.855-8.371,1.713-16.741,2.569-25.112c5.651,5.886,11.172,11.833,16.561,17.835c0.659-5.213,1.317-10.427,1.977-15.641
				c1.479,0.187,2.957,0.378,4.435,0.574c-1.099,8.317-2.2,16.634-3.298,24.952C306.842,347.13,301.483,341.282,295.997,335.492z"/>
		</g>
		<path style="fill:#FFFFFF;" d="M98.173,339c0.604,0.824,1.201,1.649,1.801,2.474c1.063-0.01,2.127-0.018,3.189-0.023
			c-0.654,0.804-1.308,1.608-1.959,2.413c0.322,0.957,0.641,1.914,0.961,2.87c-0.994-0.33-1.99-0.658-2.988-0.983
			c-0.857,0.602-1.713,1.205-2.566,1.81c0.027-1.008,0.055-2.017,0.082-3.025c-0.855-0.581-1.714-1.161-2.574-1.739
			c1.019-0.304,2.037-0.605,3.057-0.905C97.507,340.926,97.84,339.963,98.173,339z"/>
		<path style="fill:#FFFFFF;" d="M326.981,339.056c0.334,0.963,0.667,1.927,0.998,2.891c1.021,0.3,2.039,0.603,3.058,0.907
			c-0.861,0.577-1.72,1.156-2.578,1.737c0.028,1.008,0.056,2.017,0.083,3.025c-0.854-0.605-1.71-1.208-2.568-1.811
			c-0.996,0.326-1.992,0.653-2.986,0.982c0.32-0.956,0.642-1.913,0.963-2.87c-0.65-0.805-1.303-1.61-1.957-2.414
			c1.063,0.006,2.125,0.015,3.189,0.025C325.78,340.705,326.38,339.88,326.981,339.056z"/>
	</g>
</g>
</svg>
